<?xml version="1.0" encoding="utf-8"?>
<!-- Generator: Adobe Illustrator 22.0.0, SVG Export Plug-In . SVG Version: 6.00 Build 0)  -->
<svg version="1.1" id="Layer_1" xmlns="http://www.w3.org/2000/svg" xmlns:xlink="http://www.w3.org/1999/xlink" x="0px" y="0px"
     viewBox="0 0 170 200" style="enable-background:new 0 0 170 200;" xml:space="preserve">
<style type="text/css">
	.st0{fill:#FFFFFF;stroke:#3880FF;stroke-width:12;stroke-miterlimit:10;}
	.st1{fill:none;stroke:#3880FF;stroke-width:18;stroke-miterlimit:10;}
	.st2{fill:#3880FF;}
</style>
    <circle class="st0" cx="85" cy="101" r="78"/>
    <path class="st1" d="M33,102h109H33z"/>
    <path class="st1" d="M78,48v108V48z"/>
    <g>
	<path class="st2" d="M98.229,124.463c-0.335,0-0.63-0.049-0.886-0.146c-0.255-0.098-0.47-0.235-0.644-0.414
		c-0.175-0.179-0.307-0.395-0.397-0.647c-0.09-0.253-0.136-0.536-0.136-0.848v-3.635h-0.597c-0.108,0-0.201-0.035-0.277-0.105
		c-0.077-0.07-0.115-0.173-0.115-0.309v-0.82l1.118-0.218l0.414-1.716c0.055-0.217,0.208-0.325,0.461-0.325h1.099v2.055h1.743v1.438
		h-1.743v3.492c0,0.163,0.04,0.298,0.119,0.403c0.079,0.106,0.193,0.159,0.343,0.159c0.076,0,0.141-0.008,0.192-0.023
		c0.053-0.016,0.098-0.034,0.136-0.054c0.039-0.021,0.075-0.039,0.108-0.055c0.034-0.016,0.074-0.023,0.119-0.023
		c0.063,0,0.114,0.015,0.152,0.044c0.039,0.029,0.078,0.075,0.119,0.139l0.638,0.997c-0.271,0.203-0.577,0.356-0.916,0.458
		S98.59,124.463,98.229,124.463z"/>
        <path class="st2" d="M103.022,117.938c0.253-0.217,0.527-0.392,0.824-0.525c0.296-0.133,0.649-0.2,1.062-0.2
		c0.384,0,0.724,0.067,1.021,0.2c0.296,0.134,0.546,0.319,0.749,0.557s0.357,0.52,0.461,0.848c0.104,0.327,0.156,0.684,0.156,1.068
		v4.469h-2.103v-4.469c0-0.344-0.079-0.612-0.237-0.804c-0.158-0.192-0.391-0.289-0.698-0.289c-0.23,0-0.446,0.049-0.647,0.146
		c-0.201,0.097-0.397,0.229-0.587,0.396v5.019h-2.103v-10.152h2.103V117.938z"/>
        <path class="st2" d="M110.381,121.215c0.067,0.588,0.246,1.014,0.536,1.278c0.289,0.265,0.662,0.396,1.119,0.396
		c0.244,0,0.454-0.029,0.63-0.088c0.177-0.059,0.334-0.125,0.472-0.197s0.265-0.138,0.38-0.196s0.236-0.088,0.362-0.088
		c0.168,0,0.294,0.061,0.38,0.183l0.61,0.753c-0.217,0.249-0.45,0.451-0.701,0.607c-0.251,0.155-0.509,0.277-0.773,0.366
		c-0.265,0.088-0.529,0.148-0.794,0.183c-0.264,0.034-0.517,0.051-0.756,0.051c-0.493,0-0.955-0.08-1.387-0.24
		c-0.432-0.161-0.81-0.399-1.133-0.716s-0.579-0.71-0.767-1.18c-0.188-0.471-0.281-1.018-0.281-1.642c0-0.47,0.08-0.916,0.241-1.336
		c0.16-0.421,0.391-0.789,0.691-1.105s0.665-0.567,1.092-0.753c0.428-0.186,0.91-0.278,1.448-0.278c0.466,0,0.892,0.072,1.278,0.218
		c0.387,0.145,0.719,0.354,0.997,0.63c0.277,0.276,0.495,0.614,0.65,1.015c0.156,0.399,0.234,0.854,0.234,1.359
		c0,0.158-0.007,0.287-0.021,0.387s-0.038,0.179-0.074,0.237s-0.085,0.1-0.146,0.122c-0.062,0.022-0.14,0.034-0.234,0.034H110.381z
		 M113.025,119.994c0-0.168-0.021-0.33-0.064-0.488s-0.112-0.3-0.21-0.424c-0.097-0.125-0.225-0.226-0.383-0.302
		c-0.158-0.077-0.351-0.116-0.576-0.116c-0.398,0-0.71,0.114-0.937,0.343c-0.226,0.229-0.375,0.558-0.447,0.987H113.025z"/>
        <path class="st2" d="M118.938,118.298c0.426-0.375,0.896-0.654,1.414-0.837c0.518-0.184,1.073-0.274,1.665-0.274
		c0.425,0,0.809,0.068,1.149,0.206c0.342,0.139,0.631,0.33,0.868,0.577c0.237,0.246,0.42,0.539,0.546,0.878
		c0.127,0.339,0.19,0.71,0.19,1.112v4.395h-0.963c-0.199,0-0.35-0.027-0.451-0.081c-0.102-0.055-0.187-0.168-0.255-0.34
		l-0.148-0.386c-0.177,0.148-0.347,0.28-0.509,0.393c-0.163,0.113-0.331,0.21-0.506,0.289c-0.174,0.079-0.359,0.138-0.556,0.176
		s-0.415,0.058-0.654,0.058c-0.321,0-0.613-0.042-0.875-0.125c-0.263-0.084-0.485-0.207-0.668-0.37
		c-0.184-0.163-0.324-0.365-0.424-0.606c-0.1-0.242-0.149-0.521-0.149-0.838c0-0.253,0.063-0.51,0.19-0.77
		c0.126-0.26,0.346-0.497,0.657-0.712c0.313-0.215,0.732-0.395,1.262-0.54c0.529-0.145,1.195-0.226,2.001-0.244v-0.298
		c0-0.411-0.085-0.709-0.255-0.892c-0.169-0.184-0.41-0.275-0.722-0.275c-0.249,0-0.452,0.027-0.61,0.082
		c-0.159,0.054-0.3,0.115-0.425,0.183c-0.124,0.068-0.245,0.129-0.362,0.184c-0.118,0.054-0.258,0.081-0.421,0.081
		c-0.145,0-0.267-0.036-0.366-0.108s-0.181-0.158-0.244-0.258L118.938,118.298z M122.724,121.492
		c-0.421,0.019-0.767,0.055-1.038,0.108c-0.271,0.055-0.486,0.122-0.645,0.204c-0.158,0.081-0.268,0.174-0.329,0.278
		c-0.061,0.104-0.091,0.217-0.091,0.339c0,0.239,0.065,0.408,0.196,0.505c0.131,0.098,0.323,0.146,0.576,0.146
		c0.271,0,0.509-0.047,0.713-0.142c0.203-0.096,0.409-0.249,0.617-0.462V121.492z"/>
        <path class="st2" d="M128.088,118.189c0.275-0.294,0.589-0.534,0.939-0.722s0.768-0.281,1.251-0.281
		c0.366,0,0.705,0.081,1.018,0.244c0.312,0.162,0.581,0.397,0.807,0.705c0.227,0.308,0.403,0.684,0.532,1.129
		s0.193,0.951,0.193,1.516c0,0.529-0.073,1.018-0.22,1.465c-0.147,0.448-0.353,0.837-0.617,1.167s-0.581,0.588-0.95,0.772
		c-0.368,0.186-0.776,0.278-1.224,0.278c-0.366,0-0.674-0.052-0.923-0.156c-0.248-0.104-0.475-0.244-0.678-0.42v2.699h-2.103v-9.265
		h1.303c0.262,0,0.434,0.118,0.515,0.354L128.088,118.189z M128.217,122.442c0.158,0.172,0.33,0.294,0.516,0.366
		s0.38,0.108,0.583,0.108c0.194,0,0.373-0.039,0.536-0.115c0.162-0.077,0.304-0.2,0.424-0.37c0.119-0.169,0.213-0.39,0.281-0.661
		c0.067-0.271,0.102-0.602,0.102-0.99c0-0.37-0.027-0.683-0.081-0.936c-0.055-0.253-0.13-0.458-0.228-0.614
		c-0.098-0.155-0.214-0.268-0.35-0.335c-0.135-0.068-0.287-0.103-0.454-0.103c-0.308,0-0.561,0.057-0.76,0.17
		c-0.198,0.113-0.389,0.278-0.569,0.495V122.442z"/>
        <path class="st2" d="M135.887,118.189c0.275-0.294,0.589-0.534,0.939-0.722s0.768-0.281,1.251-0.281
		c0.366,0,0.705,0.081,1.018,0.244c0.312,0.162,0.581,0.397,0.807,0.705c0.227,0.308,0.403,0.684,0.532,1.129
		s0.193,0.951,0.193,1.516c0,0.529-0.073,1.018-0.22,1.465c-0.147,0.448-0.353,0.837-0.617,1.167s-0.581,0.588-0.95,0.772
		c-0.368,0.186-0.776,0.278-1.224,0.278c-0.366,0-0.674-0.052-0.923-0.156c-0.248-0.104-0.475-0.244-0.678-0.42v2.699h-2.103v-9.265
		h1.303c0.262,0,0.434,0.118,0.515,0.354L135.887,118.189z M136.016,122.442c0.158,0.172,0.33,0.294,0.516,0.366
		s0.38,0.108,0.583,0.108c0.194,0,0.373-0.039,0.536-0.115c0.162-0.077,0.304-0.2,0.424-0.37c0.119-0.169,0.213-0.39,0.281-0.661
		c0.067-0.271,0.102-0.602,0.102-0.99c0-0.37-0.027-0.683-0.081-0.936c-0.055-0.253-0.13-0.458-0.228-0.614
		c-0.098-0.155-0.214-0.268-0.35-0.335c-0.135-0.068-0.287-0.103-0.454-0.103c-0.308,0-0.561,0.057-0.76,0.17
		c-0.198,0.113-0.389,0.278-0.569,0.495V122.442z"/>
</g>
</svg>
